<svg xmlns="http://www.w3.org/2000/svg" xmlns:xlink="http://www.w3.org/1999/xlink" width="1000" zoomAndPan="magnify" viewBox="0 0 750 749.999995" height="1000" preserveAspectRatio="xMidYMid meet" version="1.0"><defs><g/></defs><g fill="#000000" fill-opacity="1"><g transform="translate(66.189926, 455.621737)"><g><path d="M 90.210938 -142.226562 L 43.074219 -142.226562 C 41.042969 -142.226562 40.230469 -141.617188 39.621094 -139.585938 L 0.40625 -2.640625 C -0.203125 -0.609375 0.203125 0 2.234375 0 L 9.144531 0 C 11.175781 0 11.988281 -0.609375 12.597656 -2.640625 L 24.179688 -42.871094 L 61.765625 -42.871094 C 65.425781 -42.871094 68.878906 -43.074219 72.128906 -43.480469 L 79.644531 -2.234375 C 79.847656 -0.609375 80.867188 0 82.492188 0 L 88.382812 0 C 90.617188 0 92.039062 -1.421875 91.632812 -3.65625 L 83.710938 -45.714844 C 99.355469 -50.792969 108.902344 -62.171875 114.796875 -82.492188 L 120.484375 -102.402344 C 128.410156 -129.832031 119.265625 -142.226562 90.210938 -142.226562 Z M 108.292969 -102.199219 L 102.605469 -82.695312 C 96.511719 -62.171875 85.742188 -54.25 64.8125 -54.25 L 27.429688 -54.25 L 49.371094 -130.847656 L 86.757812 -130.847656 C 107.683594 -130.847656 114.796875 -124.550781 108.292969 -102.199219 Z M 108.292969 -102.199219 "/></g></g></g><g fill="#000000" fill-opacity="1"><g transform="translate(184.030779, 455.621737)"><g><path d="M 37.792969 1.015625 C 54.65625 1.015625 68.269531 -4.46875 75.582031 -10.160156 C 76.394531 -10.769531 76.597656 -11.785156 75.988281 -12.800781 L 74.566406 -16.253906 C 74.160156 -17.472656 73.550781 -17.878906 71.316406 -16.660156 C 64.40625 -12.800781 55.265625 -9.550781 40.839844 -9.550781 L 38.808594 -9.550781 C 17.878906 -9.550781 13.816406 -18.488281 18.082031 -33.320312 L 21.738281 -45.917969 L 83.507812 -45.917969 C 87.570312 -45.917969 90.820312 -48.355469 91.835938 -52.21875 L 96.511719 -68.269531 C 102.808594 -90.210938 93.664062 -102.402344 70.707031 -102.402344 L 60.140625 -102.402344 C 36.574219 -102.402344 22.554688 -90.210938 16.253906 -68.269531 L 6.09375 -33.117188 C -0.203125 -11.175781 9.144531 1.015625 35.554688 1.015625 Z M 24.382812 -55.46875 L 28.039062 -68.269531 C 32.304688 -83.101562 41.652344 -91.429688 58.109375 -91.429688 L 68.269531 -91.429688 C 84.523438 -91.429688 88.789062 -82.898438 84.523438 -68.066406 L 80.867188 -55.46875 Z M 24.382812 -55.46875 "/></g></g></g><g fill="#000000" fill-opacity="1"><g transform="translate(286.633598, 455.621737)"><g><path d="M 73.957031 -102.402344 L 67.253906 -102.402344 C 54.859375 -102.402344 44.699219 -97.730469 37.792969 -90.007812 L 36.164062 -90.007812 L 38.808594 -99.152344 C 39.214844 -100.777344 38.808594 -101.589844 36.980469 -101.589844 L 30.070312 -101.589844 C 28.242188 -101.589844 27.429688 -100.777344 27.023438 -99.152344 L -10.972656 33.523438 C -11.378906 35.148438 -11.175781 35.960938 -9.347656 35.960938 L -2.4375 35.960938 C -0.609375 35.960938 0.40625 35.148438 0.8125 33.523438 L 13.613281 -11.378906 L 15.238281 -11.378906 C 17.675781 -3.65625 25.195312 1.015625 37.386719 1.015625 L 44.496094 1.015625 C 66.847656 1.015625 82.492188 -10.566406 88.992188 -33.320312 L 98.949219 -68.066406 C 105.449219 -90.820312 96.308594 -102.402344 73.957031 -102.402344 Z M 77.410156 -34.132812 C 72.941406 -18.488281 62.578125 -9.957031 46.121094 -9.957031 L 37.183594 -9.957031 C 21.535156 -9.957031 15.847656 -18.894531 20.113281 -33.726562 L 29.867188 -67.660156 C 34.132812 -82.492188 44.902344 -91.429688 60.546875 -91.429688 L 70.300781 -91.429688 C 86.757812 -91.429688 91.429688 -82.898438 86.960938 -67.253906 Z M 77.410156 -34.132812 "/></g></g></g><g fill="#000000" fill-opacity="1"><g transform="translate(391.877676, 455.621737)"><g><path d="M 73.957031 -102.402344 L 67.253906 -102.402344 C 54.859375 -102.402344 44.699219 -97.730469 37.792969 -90.007812 L 36.164062 -90.007812 L 38.808594 -99.152344 C 39.214844 -100.777344 38.808594 -101.589844 36.980469 -101.589844 L 30.070312 -101.589844 C 28.242188 -101.589844 27.429688 -100.777344 27.023438 -99.152344 L -10.972656 33.523438 C -11.378906 35.148438 -11.175781 35.960938 -9.347656 35.960938 L -2.4375 35.960938 C -0.609375 35.960938 0.40625 35.148438 0.8125 33.523438 L 13.613281 -11.378906 L 15.238281 -11.378906 C 17.675781 -3.65625 25.195312 1.015625 37.386719 1.015625 L 44.496094 1.015625 C 66.847656 1.015625 82.492188 -10.566406 88.992188 -33.320312 L 98.949219 -68.066406 C 105.449219 -90.820312 96.308594 -102.402344 73.957031 -102.402344 Z M 77.410156 -34.132812 C 72.941406 -18.488281 62.578125 -9.957031 46.121094 -9.957031 L 37.183594 -9.957031 C 21.535156 -9.957031 15.847656 -18.894531 20.113281 -33.726562 L 29.867188 -67.660156 C 34.132812 -82.492188 44.902344 -91.429688 60.546875 -91.429688 L 70.300781 -91.429688 C 86.757812 -91.429688 91.429688 -82.898438 86.960938 -67.253906 Z M 77.410156 -34.132812 "/></g></g></g><g fill="#ba45eb" fill-opacity="1"><g transform="translate(497.112347, 455.621737)"><g><path d="M 0.609375 0 L 17.269531 0 C 19.300781 0 20.722656 -1.015625 21.332031 -3.046875 L 60.34375 -139.179688 C 60.953125 -141.210938 60.140625 -142.226562 58.109375 -142.226562 L 41.449219 -142.226562 C 39.417969 -142.226562 38.402344 -141.210938 37.792969 -139.179688 L -1.421875 -3.046875 C -2.03125 -1.015625 -1.421875 0 0.609375 0 Z M 0.609375 0 "/></g></g></g><g fill="#ba45eb" fill-opacity="1"><g transform="translate(544.248684, 455.621737)"><g><path d="M 117.03125 -101.589844 L 99.355469 -101.589844 C 97.324219 -101.589844 96.105469 -100.371094 94.683594 -98.136719 L 49.777344 -27.226562 L 48.152344 -27.226562 L 43.277344 -98.136719 C 43.074219 -100.371094 42.667969 -101.589844 40.636719 -101.589844 L 24.382812 -101.589844 C 22.351562 -101.589844 20.925781 -100.371094 21.128906 -98.136719 L 29.054688 1.015625 L 8.535156 32.507812 C 7.109375 34.742188 7.925781 35.960938 9.957031 35.960938 L 27.226562 35.960938 C 29.460938 35.960938 30.679688 34.742188 31.898438 32.507812 L 118.25 -98.136719 C 119.671875 -100.371094 119.0625 -101.589844 117.03125 -101.589844 Z M 117.03125 -101.589844 "/></g></g></g><g fill="#000000" fill-opacity="1"><g transform="translate(656.396276, 455.621737)"><g><path d="M -4.875 0 L 3.046875 0 C 5.078125 0 5.890625 -0.609375 6.296875 -2.234375 L 8.941406 -10.972656 C 9.347656 -12.597656 8.941406 -13.207031 6.90625 -13.207031 L -1.015625 -13.207031 C -3.046875 -13.207031 -3.859375 -12.597656 -4.265625 -10.972656 L -6.90625 -2.234375 C -7.316406 -0.609375 -6.90625 0 -4.875 0 Z M -4.875 0 "/></g></g></g></svg>