<svg xmlns="http://www.w3.org/2000/svg" xmlns:xlink="http://www.w3.org/1999/xlink" width="1000" zoomAndPan="magnify" viewBox="0 0 750 749.999995" height="1000" preserveAspectRatio="xMidYMid meet" version="1.0"><defs><g/></defs><g fill="#00ff6e" fill-opacity="1"><g transform="translate(66.187499, 456.452343)"><g><path d="M 90.210938 -142.222656 L 43.074219 -142.222656 C 41.042969 -142.222656 40.230469 -141.613281 39.617188 -139.582031 L 0.40625 -2.640625 C -0.203125 -0.609375 0.203125 0 2.234375 0 L 9.144531 0 C 11.175781 0 11.988281 -0.609375 12.597656 -2.640625 L 24.179688 -42.871094 L 61.765625 -42.871094 C 65.421875 -42.871094 68.875 -43.074219 72.128906 -43.480469 L 79.644531 -2.234375 C 79.847656 -0.609375 80.863281 0 82.488281 0 L 88.382812 0 C 90.617188 0 92.039062 -1.421875 91.632812 -3.65625 L 83.707031 -45.714844 C 99.351562 -50.792969 108.902344 -62.171875 114.792969 -82.488281 L 120.484375 -102.398438 C 128.40625 -129.828125 119.265625 -142.222656 90.210938 -142.222656 Z M 108.292969 -102.195312 L 102.601562 -82.691406 C 96.507812 -62.171875 85.738281 -54.246094 64.8125 -54.246094 L 27.429688 -54.246094 L 49.371094 -130.84375 L 86.753906 -130.84375 C 107.683594 -130.84375 114.792969 -124.546875 108.292969 -102.195312 Z M 108.292969 -102.195312 "/></g></g></g><g fill="#00ff6e" fill-opacity="1"><g transform="translate(184.028782, 456.452343)"><g><path d="M 37.789062 1.015625 C 54.652344 1.015625 68.265625 -4.46875 75.582031 -10.160156 C 76.394531 -10.769531 76.597656 -11.785156 75.988281 -12.800781 L 74.566406 -16.253906 C 74.160156 -17.472656 73.550781 -17.878906 71.3125 -16.660156 C 64.40625 -12.800781 55.261719 -9.550781 40.839844 -9.550781 L 38.804688 -9.550781 C 17.878906 -9.550781 13.816406 -18.488281 18.082031 -33.320312 L 21.738281 -45.917969 L 83.503906 -45.917969 C 87.570312 -45.917969 90.820312 -48.355469 91.835938 -52.214844 L 96.507812 -68.265625 C 102.804688 -90.210938 93.664062 -102.398438 70.703125 -102.398438 L 60.140625 -102.398438 C 36.570312 -102.398438 22.550781 -90.210938 16.253906 -68.265625 L 6.09375 -33.117188 C -0.203125 -11.175781 9.144531 1.015625 35.554688 1.015625 Z M 24.382812 -55.464844 L 28.039062 -68.265625 C 32.304688 -83.097656 41.652344 -91.429688 58.109375 -91.429688 L 68.265625 -91.429688 C 84.519531 -91.429688 88.789062 -82.894531 84.519531 -68.0625 L 80.863281 -55.464844 Z M 24.382812 -55.464844 "/></g></g></g><g fill="#00ff6e" fill-opacity="1"><g transform="translate(286.631984, 456.452343)"><g><path d="M 73.957031 -102.398438 L 67.25 -102.398438 C 54.855469 -102.398438 44.699219 -97.726562 37.789062 -90.007812 L 36.164062 -90.007812 L 38.804688 -99.148438 C 39.210938 -100.773438 38.804688 -101.585938 36.976562 -101.585938 L 30.070312 -101.585938 C 28.242188 -101.585938 27.429688 -100.773438 27.023438 -99.148438 L -10.972656 33.523438 C -11.378906 35.148438 -11.175781 35.960938 -9.347656 35.960938 L -2.4375 35.960938 C -0.609375 35.960938 0.40625 35.148438 0.8125 33.523438 L 13.613281 -11.378906 L 15.238281 -11.378906 C 17.675781 -3.65625 25.195312 1.015625 37.382812 1.015625 L 44.496094 1.015625 C 66.84375 1.015625 82.488281 -10.566406 88.992188 -33.320312 L 98.945312 -68.0625 C 105.449219 -90.820312 96.304688 -102.398438 73.957031 -102.398438 Z M 77.410156 -34.132812 C 72.941406 -18.488281 62.578125 -9.957031 46.121094 -9.957031 L 37.179688 -9.957031 C 21.535156 -9.957031 15.847656 -18.894531 20.113281 -33.726562 L 29.867188 -67.65625 C 34.132812 -82.488281 44.902344 -91.429688 60.546875 -91.429688 L 70.296875 -91.429688 C 86.753906 -91.429688 91.429688 -82.894531 86.957031 -67.25 Z M 77.410156 -34.132812 "/></g></g></g><g fill="#00ff6e" fill-opacity="1"><g transform="translate(391.876447, 456.452343)"><g><path d="M 73.957031 -102.398438 L 67.25 -102.398438 C 54.855469 -102.398438 44.699219 -97.726562 37.789062 -90.007812 L 36.164062 -90.007812 L 38.804688 -99.148438 C 39.210938 -100.773438 38.804688 -101.585938 36.976562 -101.585938 L 30.070312 -101.585938 C 28.242188 -101.585938 27.429688 -100.773438 27.023438 -99.148438 L -10.972656 33.523438 C -11.378906 35.148438 -11.175781 35.960938 -9.347656 35.960938 L -2.4375 35.960938 C -0.609375 35.960938 0.40625 35.148438 0.8125 33.523438 L 13.613281 -11.378906 L 15.238281 -11.378906 C 17.675781 -3.65625 25.195312 1.015625 37.382812 1.015625 L 44.496094 1.015625 C 66.84375 1.015625 82.488281 -10.566406 88.992188 -33.320312 L 98.945312 -68.0625 C 105.449219 -90.820312 96.304688 -102.398438 73.957031 -102.398438 Z M 77.410156 -34.132812 C 72.941406 -18.488281 62.578125 -9.957031 46.121094 -9.957031 L 37.179688 -9.957031 C 21.535156 -9.957031 15.847656 -18.894531 20.113281 -33.726562 L 29.867188 -67.65625 C 34.132812 -82.488281 44.902344 -91.429688 60.546875 -91.429688 L 70.296875 -91.429688 C 86.753906 -91.429688 91.429688 -82.894531 86.957031 -67.25 Z M 77.410156 -34.132812 "/></g></g></g><g fill="#00ff6e" fill-opacity="1"><g transform="translate(497.109353, 456.452343)"><g><path d="M 0.609375 0 L 17.269531 0 C 19.300781 0 20.722656 -1.015625 21.332031 -3.046875 L 60.34375 -139.175781 C 60.953125 -141.207031 60.140625 -142.222656 58.109375 -142.222656 L 41.449219 -142.222656 C 39.414062 -142.222656 38.398438 -141.207031 37.789062 -139.175781 L -1.421875 -3.046875 C -2.03125 -1.015625 -1.421875 0 0.609375 0 Z M 0.609375 0 "/></g></g></g><g fill="#00ff6e" fill-opacity="1"><g transform="translate(544.245871, 456.452343)"><g><path d="M 117.027344 -101.585938 L 99.351562 -101.585938 C 97.320312 -101.585938 96.101562 -100.367188 94.679688 -98.132812 L 49.777344 -27.226562 L 48.152344 -27.226562 L 43.277344 -98.132812 C 43.074219 -100.367188 42.667969 -101.585938 40.636719 -101.585938 L 24.382812 -101.585938 C 22.347656 -101.585938 20.925781 -100.367188 21.128906 -98.132812 L 29.054688 1.015625 L 8.535156 32.507812 C 7.109375 34.742188 7.921875 35.960938 9.957031 35.960938 L 27.226562 35.960938 C 29.460938 35.960938 30.679688 34.742188 31.898438 32.507812 L 118.246094 -98.132812 C 119.671875 -100.367188 119.058594 -101.585938 117.027344 -101.585938 Z M 117.027344 -101.585938 "/></g></g></g><g fill="#00ff6e" fill-opacity="1"><g transform="translate(656.390595, 456.452343)"><g><path d="M -4.875 0 L 3.046875 0 C 5.078125 0 5.890625 -0.609375 6.296875 -2.234375 L 8.941406 -10.972656 C 9.347656 -12.597656 8.941406 -13.207031 6.90625 -13.207031 L -1.015625 -13.207031 C -3.046875 -13.207031 -3.859375 -12.597656 -4.265625 -10.972656 L -6.90625 -2.234375 C -7.3125 -0.609375 -6.90625 0 -4.875 0 Z M -4.875 0 "/></g></g></g></svg>