<svg xmlns="http://www.w3.org/2000/svg" xmlns:xlink="http://www.w3.org/1999/xlink" width="1000" zoomAndPan="magnify" viewBox="0 0 750 749.999995" height="1000" preserveAspectRatio="xMidYMid meet" version="1.0"><defs><g/></defs><g fill="#00ff6e" fill-opacity="1"><g transform="translate(104.596082, 456.000936)"><g><path d="M 119.167969 -187.875 L 56.898438 -187.875 C 54.214844 -187.875 53.140625 -187.070312 52.335938 -184.386719 L 0.535156 -3.488281 C -0.269531 -0.804688 0.269531 0 2.953125 0 L 12.078125 0 C 14.761719 0 15.835938 -0.804688 16.640625 -3.488281 L 31.9375 -56.632812 L 81.59375 -56.632812 C 86.421875 -56.632812 90.984375 -56.898438 95.28125 -57.4375 L 105.210938 -2.953125 C 105.480469 -0.804688 106.820312 0 108.96875 0 L 116.75 0 C 119.703125 0 121.582031 -1.878906 121.046875 -4.832031 L 110.578125 -60.390625 C 131.246094 -67.097656 143.859375 -82.128906 151.644531 -108.96875 L 159.160156 -135.269531 C 169.625 -171.503906 157.546875 -187.875 119.167969 -187.875 Z M 143.054688 -135.003906 L 135.539062 -109.238281 C 127.488281 -82.128906 113.261719 -71.660156 85.617188 -71.660156 L 36.234375 -71.660156 L 65.21875 -172.847656 L 114.605469 -172.847656 C 142.25 -172.847656 151.644531 -164.527344 143.054688 -135.003906 Z M 143.054688 -135.003906 "/></g></g></g><g fill="#00ff6e" fill-opacity="1"><g transform="translate(232.351578, 456.000936)"><g><path d="M 97.695312 -135.269531 L 88.839844 -135.269531 C 72.464844 -135.269531 59.046875 -129.097656 49.921875 -118.898438 L 47.773438 -118.898438 L 51.261719 -130.976562 C 51.800781 -133.125 51.261719 -134.199219 48.847656 -134.199219 L 39.722656 -134.199219 C 37.308594 -134.199219 36.234375 -133.125 35.695312 -130.976562 L -14.492188 44.285156 C -15.03125 46.433594 -14.761719 47.507812 -12.347656 47.507812 L -3.222656 47.507812 C -0.804688 47.507812 0.535156 46.433594 1.074219 44.285156 L 17.984375 -15.03125 L 20.128906 -15.03125 C 23.351562 -4.832031 33.28125 1.34375 49.382812 1.34375 L 58.777344 1.34375 C 88.300781 1.34375 108.96875 -13.957031 117.558594 -44.015625 L 130.707031 -89.914062 C 139.296875 -119.972656 127.21875 -135.269531 97.695312 -135.269531 Z M 102.257812 -45.089844 C 96.355469 -24.425781 82.664062 -13.152344 60.925781 -13.152344 L 49.117188 -13.152344 C 28.449219 -13.152344 20.933594 -24.960938 26.570312 -44.554688 L 39.453125 -89.375 C 45.089844 -108.96875 59.316406 -120.777344 79.980469 -120.777344 L 92.863281 -120.777344 C 114.605469 -120.777344 120.777344 -109.503906 114.875 -88.839844 Z M 102.257812 -45.089844 "/></g></g></g><g fill="#00ff6e" fill-opacity="1"><g transform="translate(343.466632, 456.000936)"><g><path d="M 97.695312 -135.269531 L 88.839844 -135.269531 C 72.464844 -135.269531 59.046875 -129.097656 49.921875 -118.898438 L 47.773438 -118.898438 L 51.261719 -130.976562 C 51.800781 -133.125 51.261719 -134.199219 48.847656 -134.199219 L 39.722656 -134.199219 C 37.308594 -134.199219 36.234375 -133.125 35.695312 -130.976562 L -14.492188 44.285156 C -15.03125 46.433594 -14.761719 47.507812 -12.347656 47.507812 L -3.222656 47.507812 C -0.804688 47.507812 0.535156 46.433594 1.074219 44.285156 L 17.984375 -15.03125 L 20.128906 -15.03125 C 23.351562 -4.832031 33.28125 1.34375 49.382812 1.34375 L 58.777344 1.34375 C 88.300781 1.34375 108.96875 -13.957031 117.558594 -44.015625 L 130.707031 -89.914062 C 139.296875 -119.972656 127.21875 -135.269531 97.695312 -135.269531 Z M 102.257812 -45.089844 C 96.355469 -24.425781 82.664062 -13.152344 60.925781 -13.152344 L 49.117188 -13.152344 C 28.449219 -13.152344 20.933594 -24.960938 26.570312 -44.554688 L 39.453125 -89.375 C 45.089844 -108.96875 59.316406 -120.777344 79.980469 -120.777344 L 92.863281 -120.777344 C 114.605469 -120.777344 120.777344 -109.503906 114.875 -88.839844 Z M 102.257812 -45.089844 "/></g></g></g><g fill="#000000" fill-opacity="1"><g transform="translate(454.576534, 456.000936)"><g><path d="M 0.804688 0 L 22.8125 0 C 25.496094 0 27.375 -1.34375 28.179688 -4.027344 L 79.714844 -183.851562 C 80.519531 -186.535156 79.445312 -187.875 76.761719 -187.875 L 54.753906 -187.875 C 52.070312 -187.875 50.726562 -186.535156 49.921875 -183.851562 L -1.878906 -4.027344 C -2.683594 -1.34375 -1.878906 0 0.804688 0 Z M 0.804688 0 "/></g></g></g><g fill="#000000" fill-opacity="1"><g transform="translate(488.930748, 456.000936)"><g><path d="M 154.59375 -134.199219 L 131.246094 -134.199219 C 128.5625 -134.199219 126.949219 -132.585938 125.070312 -129.636719 L 65.757812 -35.964844 L 63.609375 -35.964844 L 57.167969 -129.636719 C 56.898438 -132.585938 56.363281 -134.199219 53.679688 -134.199219 L 32.207031 -134.199219 C 29.523438 -134.199219 27.644531 -132.585938 27.914062 -129.636719 L 38.378906 1.34375 L 11.273438 42.941406 C 9.394531 45.894531 10.46875 47.507812 13.152344 47.507812 L 35.964844 47.507812 C 38.917969 47.507812 40.527344 45.894531 42.136719 42.941406 L 156.207031 -129.636719 C 158.085938 -132.585938 157.28125 -134.199219 154.59375 -134.199219 Z M 154.59375 -134.199219 "/></g></g></g><g fill="#000000" fill-opacity="1"><g transform="translate(609.170276, 456.000936)"><g><path d="M -6.441406 0 L 4.027344 0 C 6.710938 0 7.785156 -0.804688 8.320312 -2.953125 L 11.808594 -14.492188 C 12.347656 -16.640625 11.808594 -17.445312 9.125 -17.445312 L -1.34375 -17.445312 C -4.027344 -17.445312 -5.097656 -16.640625 -5.636719 -14.492188 L -9.125 -2.953125 C -9.664062 -0.804688 -9.125 0 -6.441406 0 Z M -6.441406 0 "/></g></g></g></svg>