<svg width="848" height="285" viewBox="0 0 848 285" fill="none" xmlns="http://www.w3.org/2000/svg">
<path d="M145.534 25.8604H82.6855C79.9772 25.8604 78.8938 26.6729 78.0813 29.3812L25.7949 211.975C24.9824 214.683 25.524 215.496 28.2324 215.496H37.4459C40.1543 215.496 41.2376 214.683 42.0501 211.975L57.4928 158.334H107.607C112.488 158.334 117.092 158.063 121.425 157.522L131.446 212.517C131.717 214.683 133.076 215.496 135.243 215.496H143.097C146.076 215.496 147.972 213.6 147.43 210.621L136.868 154.543C157.727 147.772 170.456 132.6 178.316 105.506L185.899 78.9593C196.467 42.3864 184.274 25.8604 145.534 25.8604ZM169.644 79.2301L162.061 105.235C153.936 132.6 139.576 143.162 111.67 143.162H61.8261L91.0813 41.0322H140.93C168.831 41.0322 178.316 49.4281 169.644 79.2301Z" fill="black"/>
<path d="M232.765 216.85C255.249 216.85 273.4 209.537 283.15 201.949C284.234 201.136 284.505 199.782 283.692 198.428L281.796 193.824C281.255 192.199 280.442 191.657 277.463 193.282C268.249 198.428 256.062 202.761 236.828 202.761H234.119C206.213 202.761 200.796 190.845 206.484 171.069L211.359 154.272H293.718C299.135 154.272 303.468 151.022 304.822 145.871L311.057 124.47C319.452 95.2144 307.26 78.9592 276.65 78.9592H262.562C231.14 78.9592 212.447 95.2144 204.046 124.47L190.499 171.339C182.104 200.595 194.567 216.85 229.781 216.85H232.765ZM214.885 141.537L219.76 124.47C225.447 104.694 237.911 93.5894 259.854 93.5894H273.4C295.072 93.5894 300.76 104.964 295.072 124.74L290.197 141.537H214.885Z" fill="black"/>
<path d="M417.787 78.9592H408.85C392.324 78.9592 378.777 85.1884 369.569 95.4853H367.397L370.923 83.2926C371.465 81.1259 370.923 80.0426 368.485 80.0426H359.272C356.834 80.0426 355.751 81.1259 355.209 83.2926L304.548 260.194C304.006 262.36 304.277 263.444 306.715 263.444H315.928C318.366 263.444 319.72 262.36 320.261 260.194L337.329 200.324H339.496C342.746 210.621 352.772 216.85 369.027 216.85H378.506C408.308 216.85 429.168 201.407 437.834 171.069L451.11 124.74C459.777 94.4019 447.59 78.9592 417.787 78.9592ZM422.392 169.985C416.433 190.845 402.616 202.22 380.673 202.22H368.756C347.892 202.22 340.308 190.303 345.996 170.527L359.001 125.282C364.689 105.506 379.048 93.5894 399.907 93.5894H412.912C434.855 93.5894 441.084 104.964 435.126 125.824L422.392 169.985Z" fill="black"/>
<path d="M558.113 78.9592H549.175C532.649 78.9592 519.103 85.1884 509.894 95.4853H507.722L511.248 83.2926C511.79 81.1259 511.248 80.0426 508.811 80.0426H499.597C497.16 80.0426 496.076 81.1259 495.535 83.2926L444.873 260.194C444.332 262.36 444.602 263.444 447.04 263.444H456.254C458.691 263.444 460.045 262.36 460.587 260.194L477.655 200.324H479.821C483.071 210.621 493.097 216.85 509.353 216.85H518.832C548.634 216.85 569.493 201.407 578.16 171.069L591.436 124.74C600.103 94.4019 587.915 78.9592 558.113 78.9592ZM562.717 169.985C556.759 190.845 542.941 202.22 520.998 202.22H509.082C488.217 202.22 480.634 190.303 486.321 170.527L499.326 125.282C505.014 105.506 519.373 93.5894 540.233 93.5894H553.238C575.181 93.5894 581.41 104.964 575.451 125.824L562.717 169.985Z" fill="black"/>
<path d="M600.629 215.496H622.843C625.551 215.496 627.447 214.142 628.259 211.433L680.275 29.9229C681.087 27.2145 680.004 25.8604 677.296 25.8604H655.082C652.374 25.8604 651.02 27.2145 650.207 29.9229L597.921 211.433C597.108 214.142 597.921 215.496 600.629 215.496Z" fill="#4F2E8C"/>
<path d="M818.707 80.0425H795.139C792.431 80.0425 790.806 81.6675 788.91 84.6466L729.035 179.194H726.868L720.368 84.6466C720.097 81.6675 719.556 80.0425 716.847 80.0425H695.175C692.467 80.0425 690.566 81.6675 690.837 84.6466L701.405 216.85L674.045 258.839C672.144 261.819 673.233 263.444 675.941 263.444H698.967C701.946 263.444 703.571 261.819 705.196 258.839L820.332 84.6466C822.227 81.6675 821.415 80.0425 818.707 80.0425Z" fill="#4F2E8C"/>
<path d="M805.695 215.496H816.258C818.966 215.496 820.049 214.683 820.591 212.516L824.117 200.865C824.659 198.699 824.117 197.886 821.403 197.886H810.841C808.133 197.886 807.049 198.699 806.508 200.865L802.987 212.516C802.44 214.683 802.987 215.496 805.695 215.496Z" fill="black"/>
</svg>
