<svg width="19" height="17" viewBox="0 0 19 17" fill="none" xmlns="http://www.w3.org/2000/svg">
<path d="M9.69182 16.9333H9.67957C7.41945 16.8913 0.898071 10.999 0.898071 5.41829C0.898071 2.73729 3.10745 0.383545 5.6257 0.383545C7.62945 0.383545 8.97695 1.76604 9.69095 2.77229C10.4032 1.76779 11.7507 0.383545 13.7553 0.383545C16.2753 0.383545 18.4838 2.73729 18.4838 5.41917C18.4838 10.9982 11.9616 16.8904 9.70145 16.9315H9.69182V16.9333ZM5.62657 1.69692C3.80657 1.69692 2.21145 3.43642 2.21145 5.42004C2.21145 10.4425 8.3662 15.5665 9.6927 15.6208C11.0209 15.5665 17.1739 10.4434 17.1739 5.42004C17.1739 3.43642 15.5788 1.69692 13.7588 1.69692C11.5468 1.69692 10.3113 4.26592 10.3008 4.29129C10.0996 4.78304 9.28932 4.78304 9.0872 4.29129C9.07495 4.26504 7.84032 1.69692 5.62745 1.69692H5.62657Z" fill="#828282"/>
</svg>
