<svg width="22" height="15" viewBox="0 0 22 15" fill="none" xmlns="http://www.w3.org/2000/svg">
<path d="M21.0571 10.7113C20.8016 10.4549 20.386 10.4549 20.1296 10.7113L18.1871 12.6538V3.6938C18.1871 1.8843 16.7145 0.412547 14.9059 0.412547H9.78712C9.42487 0.412547 9.13087 0.706547 9.13087 1.0688C9.13087 1.43105 9.42487 1.72505 9.78712 1.72505H14.9059C15.9909 1.72505 16.8746 2.6088 16.8746 3.6938V12.6538L14.9321 10.7113C14.6757 10.4549 14.2601 10.4549 14.0046 10.7113C13.7491 10.9677 13.7474 11.3833 14.0046 11.6388L17.0671 14.7013C17.194 14.8299 17.362 14.8938 17.5309 14.8938C17.6997 14.8938 17.866 14.8308 17.9946 14.7013L21.0571 11.6388C21.3144 11.3833 21.3144 10.9677 21.0571 10.7113V10.7113ZM11.7296 13.5813H6.61087C5.52587 13.5813 4.64212 12.6975 4.64212 11.6125V2.65255L6.58462 4.59505C6.71412 4.72367 6.88212 4.78755 7.05012 4.78755C7.21812 4.78755 7.38612 4.72367 7.51387 4.59505C7.77024 4.33867 7.77024 3.92305 7.51387 3.66755L4.45137 0.605047C4.195 0.347797 3.77937 0.347797 3.52387 0.605047L0.46137 3.66755C0.20412 3.92305 0.20412 4.33867 0.46137 4.59505C0.71862 4.85142 1.1325 4.85142 1.38887 4.59505L3.33137 2.65255V11.6125C3.33137 13.422 4.804 14.8938 6.61262 14.8938H11.7314C12.0936 14.8938 12.3876 14.5998 12.3876 14.2375C12.3876 13.8753 12.0927 13.5813 11.7314 13.5813H11.7296Z" fill="#828282"/>
</svg>
