<svg width="25" height="25" viewBox="0 0 25 25" fill="none" xmlns="http://www.w3.org/2000/svg">
<g opacity="0.99">
<circle cx="12.5" cy="12.5" r="12" fill="#C4C4C4" stroke="black"/>
<path fill-rule="evenodd" clip-rule="evenodd" d="M9.19019 8.7786C9.19019 6.80682 10.7886 5.20837 12.7604 5.20837C14.7322 5.20837 16.3306 6.80682 16.3306 8.7786C16.3306 10.7504 14.7322 12.3488 12.7604 12.3488C10.7886 12.3488 9.19019 10.7504 9.19019 8.7786ZM12.7604 6.46845C11.4846 6.46845 10.4503 7.50274 10.4503 8.7786C10.4503 10.0545 11.4846 11.0887 12.7604 11.0887C14.0363 11.0887 15.0706 10.0545 15.0706 8.7786C15.0706 7.50274 14.0363 6.46845 12.7604 6.46845Z" fill="black"/>
<path fill-rule="evenodd" clip-rule="evenodd" d="M9.4002 14.869C8.35632 14.869 7.51008 15.7152 7.51008 16.7591V17.7573C7.51008 17.7725 7.5211 17.7855 7.5361 17.7879C10.9961 18.3528 14.5248 18.3528 17.9847 17.7879C17.9997 17.7855 18.0108 17.7725 18.0108 17.7573V16.7591C18.0108 15.7152 17.1645 14.869 16.1206 14.869H15.8343C15.8121 14.869 15.7901 14.8725 15.7691 14.8794L15.042 15.1168C13.5595 15.6009 11.9614 15.6009 10.4788 15.1168L9.75174 14.8794C9.73069 14.8725 9.70869 14.869 9.68655 14.869H9.4002ZM6.25 16.7591C6.25 15.0193 7.66039 13.6089 9.4002 13.6089H9.68655C9.84153 13.6089 9.99554 13.6334 10.1429 13.6815L10.8699 13.9189C12.0983 14.32 13.4225 14.32 14.6509 13.9189L15.378 13.6815C15.5253 13.6334 15.6793 13.6089 15.8343 13.6089H16.1206C17.8604 13.6089 19.2708 15.0193 19.2708 16.7591V17.7573C19.2708 18.3901 18.8123 18.9296 18.1878 19.0316C14.5933 19.6184 10.9275 19.6184 7.33306 19.0316C6.70857 18.9296 6.25 18.3901 6.25 17.7573V16.7591Z" fill="black"/>
</g>
</svg>
