<svg width="48" height="48" viewBox="0 0 48 48" fill="none" xmlns="http://www.w3.org/2000/svg">
<circle cx="24" cy="24" r="24" fill="#C4C4C4"/>
<path fill-rule="evenodd" clip-rule="evenodd" d="M17.6452 16.8548C17.6452 13.069 20.7142 10 24.5 10C28.2858 10 31.3548 13.069 31.3548 16.8548C31.3548 20.6407 28.2858 23.7097 24.5 23.7097C20.7142 23.7097 17.6452 20.6407 17.6452 16.8548ZM24.5 12.4194C22.0504 12.4194 20.0645 14.4052 20.0645 16.8548C20.0645 19.3045 22.0504 21.2903 24.5 21.2903C26.9496 21.2903 28.9355 19.3045 28.9355 16.8548C28.9355 14.4052 26.9496 12.4194 24.5 12.4194Z" fill="black" fill-opacity="0.23"/>
<path fill-rule="evenodd" clip-rule="evenodd" d="M18.0484 28.5484C16.0441 28.5484 14.4194 30.1732 14.4194 32.1774V34.094C14.4194 34.1232 14.4405 34.1481 14.4693 34.1528C21.1125 35.2374 27.8875 35.2374 34.5307 34.1528C34.5595 34.1481 34.5806 34.1232 34.5806 34.094V32.1774C34.5806 30.1732 32.9559 28.5484 30.9516 28.5484H30.4018C30.3593 28.5484 30.3171 28.5551 30.2767 28.5683L28.8807 29.0241C26.0342 29.9536 22.9658 29.9536 20.1193 29.0241L18.7233 28.5683C18.6829 28.5551 18.6407 28.5484 18.5982 28.5484H18.0484ZM12 32.1774C12 28.837 14.708 26.129 18.0484 26.129H18.5982C18.8957 26.129 19.1914 26.1761 19.4743 26.2685L20.8703 26.7243C23.2288 27.4944 25.7712 27.4944 28.1297 26.7243L29.5257 26.2685C29.8086 26.1761 30.1043 26.129 30.4018 26.129H30.9516C34.292 26.129 37 28.837 37 32.1774V34.094C37 35.3089 36.1195 36.3448 34.9205 36.5405C28.0192 37.6673 20.9808 37.6673 14.0795 36.5405C12.8805 36.3448 12 35.3089 12 34.094V32.1774Z" fill="black" fill-opacity="0.23"/>
</svg>
