<svg width="19" height="19" viewBox="0 0 19 19" fill="none" xmlns="http://www.w3.org/2000/svg">
<path d="M11.2902 0.961753L7.66073 0.953003H7.65898C3.83173 0.953003 0.833984 3.95163 0.833984 7.77975C0.833984 11.3655 3.62173 14.085 7.36586 14.2285V17.578C7.36586 17.6725 7.40436 17.8283 7.47086 17.9306C7.59511 18.1275 7.80686 18.2343 8.02386 18.2343C8.14461 18.2343 8.26623 18.201 8.37561 18.131C8.60661 17.984 14.0395 14.5085 15.4526 13.3133C17.1169 11.9045 18.1126 9.8395 18.1152 7.79025V7.77538C18.11 3.95425 15.114 0.961753 11.2902 0.960878V0.961753ZM14.6039 12.3123C13.6116 13.1523 10.3496 15.2916 8.67836 16.3749V13.5863C8.67836 13.224 8.38523 12.93 8.02211 12.93H7.67561C4.47311 12.93 2.14736 10.7635 2.14736 7.77975C2.14736 4.6875 4.56936 2.2655 7.65986 2.2655L11.2885 2.27425H11.2902C14.3807 2.27425 16.8027 4.6945 16.8045 7.78325C16.8019 9.4545 15.9802 11.1468 14.6047 12.3123H14.6039Z" fill="#828282"/>
</svg>
